<svg width="54" height="54" viewBox="0 0 54 54" fill="none" xmlns="http://www.w3.org/2000/svg">
<rect width="54" height="54" rx="10" fill="#77C000"/>
<path fill-rule="evenodd" clip-rule="evenodd" d="M10 5C4.47714 5 0 9.47714 0 15V10C0 4.47714 4.47714 0 10 0H44C49.5229 0 54 4.47714 54 10V15C54 9.47714 49.5229 5 44 5H10Z" transform="translate(54 54) rotate(180)" fill="#201D28" fill-opacity="0.23"/>
<path d="M2.11078 8.54221e-07C0.946899 8.54221e-07 -4.29153e-08 0.961623 -4.29153e-08 2.14361C-4.29153e-08 3.32559 0.946899 4.28721 2.11078 4.28721C3.27466 4.28721 4.22156 3.32559 4.22156 2.14361C4.22156 0.961623 3.27466 8.54221e-07 2.11078 8.54221e-07ZM2.11078 2.85816C1.7228 2.85816 1.40716 2.53762 1.40716 2.14361C1.40716 1.74959 1.7228 1.42905 2.11078 1.42905C2.49877 1.42905 2.8144 1.74959 2.8144 2.14361C2.8144 2.53762 2.49877 2.85816 2.11078 2.85816Z" transform="translate(21.921 31.5332)" fill="#639B09"/>
<path d="M2.11078 8.54221e-07C0.946899 8.54221e-07 -2.48909e-07 0.961623 -2.48909e-07 2.14361C-2.48909e-07 3.32559 0.946899 4.28721 2.11078 4.28721C3.27466 4.28721 4.22156 3.32559 4.22156 2.14361C4.22156 0.961623 3.27466 8.54221e-07 2.11078 8.54221e-07ZM2.11078 2.85816C1.7228 2.85816 1.40717 2.53762 1.40717 2.14361C1.40717 1.74959 1.7228 1.42905 2.11078 1.42905C2.49877 1.42905 2.8144 1.74959 2.8144 2.14361C2.8144 2.53762 2.49877 2.85816 2.11078 2.85816Z" transform="translate(26.8462 31.5332)" fill="#639B09"/>
<path d="M2.11078 8.54221e-07C0.946898 8.54221e-07 6.17981e-07 0.961623 6.17981e-07 2.14361C6.17981e-07 3.32559 0.946898 4.28721 2.11078 4.28721C3.27466 4.28721 4.22156 3.32559 4.22156 2.14361C4.22163 0.961623 3.27473 8.54221e-07 2.11078 8.54221e-07ZM2.11078 2.85816C1.7228 2.85816 1.40716 2.53762 1.40716 2.14361C1.40716 1.74959 1.7228 1.42905 2.11078 1.42905C2.49877 1.42905 2.8144 1.74959 2.8144 2.14361C2.8144 2.53762 2.49877 2.85816 2.11078 2.85816Z" transform="translate(31.7713 31.5332)" fill="#639B09"/>
<path d="M35.9585 17.6676C35.8272 17.2962 35.4244 17.1031 35.0585 17.2364L25.0998 20.859C24.82 20.9608 24.6335 21.23 24.6335 21.5317V23.2579C24.6335 23.4618 24.4639 23.634 24.2632 23.634H20.241L20.2314 12.5402C20.9025 13.1078 21.7647 13.4499 22.7043 13.4499C24.0122 13.4499 25.1697 12.7871 25.8705 11.7753C26.5714 12.787 27.7289 13.4499 29.0367 13.4499C30.9301 13.4499 32.5092 12.0614 32.8411 10.2345H33.2582C33.6468 10.2345 33.9618 9.91464 33.9618 9.51998C33.9618 9.12532 33.6468 8.80542 33.2582 8.80542H22.9138L23.4563 7.06226C23.5642 6.7158 23.4997 6.34199 23.2795 6.0368C23.0176 5.67391 22.5558 5.43934 22.103 5.43934H20.2254L20.2213 0.713345C20.2213 0.709418 20.2208 0.705633 20.2208 0.701706C20.2205 0.686711 20.2196 0.671715 20.2184 0.656649C20.2177 0.647437 20.217 0.638226 20.2159 0.629086C20.2144 0.615804 20.2122 0.602594 20.2099 0.589384C20.208 0.578388 20.2061 0.567463 20.2037 0.556609C20.2013 0.545898 20.1984 0.535259 20.1955 0.524548C20.192 0.511481 20.1883 0.498627 20.184 0.485846C20.1812 0.477206 20.178 0.468637 20.1748 0.459997C20.1694 0.445858 20.1638 0.431863 20.1576 0.418153C20.1561 0.414583 20.1549 0.410941 20.1533 0.407442C20.1511 0.402943 20.1486 0.398945 20.1464 0.394589C20.14 0.38145 20.1332 0.368597 20.126 0.355958C20.1209 0.347176 20.1157 0.338535 20.1104 0.330038C20.1039 0.319613 20.0971 0.309473 20.09 0.299405C20.0832 0.289551 20.076 0.279911 20.0687 0.270557C20.0624 0.262488 20.0559 0.254705 20.0493 0.246922C20.0407 0.236782 20.0319 0.226857 20.0228 0.217288C20.0164 0.210576 20.0098 0.204078 20.0031 0.197652C19.9934 0.188297 19.9837 0.179086 19.9735 0.170303C19.9662 0.164019 19.9586 0.15795 19.951 0.151952C19.9411 0.144097 19.9312 0.136385 19.9209 0.129173C19.912 0.122818 19.9028 0.116891 19.8936 0.110893C19.8842 0.104895 19.8748 0.0988972 19.8652 0.0933989C19.8544 0.0871866 19.8435 0.0814027 19.8323 0.0758331C19.8236 0.0714059 19.8149 0.0669787 19.806 0.0629086C19.794 0.0574103 19.7817 0.0524119 19.7693 0.0476278C19.7606 0.0442003 19.7518 0.0408442 19.743 0.0378451C19.7307 0.0336322 19.7183 0.0299191 19.7058 0.0263488C19.6959 0.0235639 19.686 0.0209219 19.676 0.0185655C19.6646 0.0159235 19.6532 0.0136385 19.6417 0.0115678C19.6296 0.00935418 19.6174 0.00749762 19.6052 0.00592669C19.5955 0.00471279 19.5858 0.00371311 19.576 0.00292764C19.5615 0.00171374 19.547 0.000999689 19.5325 0.000714065C19.5278 0.000642659 19.5232 6.94599e-09 19.5185 6.94599e-09C19.5183 6.94599e-09 19.518 6.94599e-09 19.5178 6.94599e-09C19.514 6.94599e-09 19.5105 0.000499841 19.5067 0.000571247C19.4917 0.000785464 19.4766 0.00171374 19.4615 0.00292764C19.4527 0.0036417 19.4439 0.00435577 19.4352 0.00542685C19.4219 0.00706919 19.4086 0.00921136 19.3953 0.0116392C19.3847 0.0135671 19.3742 0.0154951 19.3639 0.0178515C19.353 0.0203507 19.3422 0.0233497 19.3314 0.0263488C19.3189 0.0298477 19.3063 0.0335608 19.2941 0.0377737C19.2854 0.0407728 19.2768 0.0440574 19.2682 0.0474135C19.2544 0.052769 19.2407 0.0584814 19.2273 0.0646937C19.2238 0.0663361 19.2202 0.0674786 19.2168 0.0691923L14.295 2.44465C14.0406 2.5674 13.8829 2.83246 13.894 3.11822C13.9051 3.40406 14.083 3.65555 14.3461 3.75752L18.6863 5.43949H16.9734C16.5206 5.43949 16.0587 5.67399 15.7969 6.03694C15.5768 6.34213 15.5123 6.71587 15.6201 7.0624L16.1626 8.80556H5.81794C5.42932 8.80556 5.11432 9.12546 5.11432 9.52012C5.11432 9.91478 5.42932 10.2347 5.81794 10.2347H6.23503C6.56698 12.0615 8.14606 13.4501 10.0395 13.4501C11.3474 13.4501 12.5049 12.7872 13.2057 11.7755C13.9065 12.7872 15.064 13.4501 16.3718 13.4501C17.3019 13.4501 18.1561 13.1151 18.8242 12.5578L18.8338 23.6342H14.8129C14.7736 23.6342 14.735 23.6277 14.6983 23.6153V17.2445C14.6983 16.8499 14.3833 16.53 13.9947 16.53H0.703617C0.315 16.5298 0 16.8497 0 17.2444C0 17.639 0.315 17.9589 0.703617 17.9589H1.94548V20.0384H0.703617C0.315 20.0384 0 20.3583 0 20.7529C0 21.1476 0.315 21.4675 0.703617 21.4675H1.94548V24.2615C1.94548 24.6562 2.26048 24.9761 2.64909 24.9761H7.14242V25.94C7.13939 25.9753 7.1389 26.011 7.14108 26.0468C7.1415 26.054 7.14206 26.0612 7.14263 26.0692C7.16049 27.6543 7.55466 29.1029 8.30194 30.3772H7.84596C7.45734 30.3772 7.14234 30.6971 7.14234 31.0918V35.2854C7.14234 35.6801 7.45734 36 7.84596 36H11.9753C12.364 36 12.679 35.6801 12.679 35.2854V34.2384C14.733 35.2366 17.2098 35.7761 19.8195 35.7761C22.9478 35.7761 25.8739 34.9998 28.0589 33.5903C30.5939 31.955 31.9338 29.6213 31.9338 26.8415V19.8911L35.5338 18.5815C35.8996 18.4482 36.0897 18.039 35.9585 17.6676ZM31.3964 10.2345C31.0928 11.2664 30.1501 12.0209 29.0367 12.0209C27.9233 12.0209 26.9806 11.2664 26.6771 10.2345H31.3964ZM10.0396 12.0209C8.92617 12.0209 7.98342 11.2664 7.67988 10.2345H12.3991C12.0956 11.2664 11.153 12.0209 10.0396 12.0209ZM25.0639 10.2345C24.7604 11.2664 23.8177 12.0209 22.7043 12.0209C21.5909 12.0209 20.6483 11.2664 20.3446 10.2345H25.0639ZM16.3841 3.01761L18.8152 1.84427L18.817 3.96053L16.3841 3.01761ZM16.372 12.0209C15.2586 12.0209 14.3158 11.2664 14.0123 10.2345H18.7315C18.4281 11.2664 17.4854 12.0209 16.372 12.0209ZM17.657 8.80542C17.6377 8.77193 17.6091 8.71188 17.5778 8.6117L17.0353 6.86846L22.0409 6.86839L21.4983 8.6117C21.4671 8.71181 21.4384 8.77186 21.4191 8.80542H17.657ZM3.35264 17.9589H13.2912V20.0384H3.35264V17.9589ZM11.2717 34.5709H8.54958V31.8063H9.35452C9.8922 32.3996 10.5243 32.9408 11.2493 33.4236C11.2567 33.4285 11.2643 33.4332 11.2717 33.4382V34.5709ZM30.5267 26.8414C30.5266 29.7043 28.7743 31.4356 27.3044 32.3839C25.3421 33.6497 22.684 34.3469 19.8195 34.3469C14.4258 34.3469 8.59838 31.7441 8.54958 26.0296C8.54958 26.0262 8.54951 26.0227 8.54944 26.0192C8.54958 26.0135 8.54965 26.008 8.54965 26.0023V24.9761H9.16327C9.55188 24.9761 9.86688 24.6562 9.86688 24.2615C9.86688 23.8668 9.55188 23.547 9.16327 23.547H3.35264V21.4674H13.2912V23.9623C13.2912 24.1318 13.3506 24.2958 13.4587 24.425C13.798 24.8305 14.2917 25.0632 14.8131 25.0632H24.2632C25.2433 25.0632 26.0407 24.2534 26.0407 23.258V22.0348L28.0979 21.2865V23.2324C28.0979 23.6271 28.4129 23.947 28.8016 23.947C29.1902 23.947 29.5052 23.6271 29.5052 23.2324V20.7746L30.5267 20.403V26.8414H30.5267Z" transform="translate(9 5)" fill="#639B09"/>
<path d="M0.737016 -1.74331e-07H0.703617C0.315 -1.74331e-07 4.4632e-07 0.319897 4.4632e-07 0.714558C4.4632e-07 1.10922 0.315 1.42912 0.703617 1.42912H0.737016C1.12563 1.42912 1.44063 1.10922 1.44063 0.714558C1.44063 0.319897 1.12556 -1.74331e-07 0.737016 -1.74331e-07Z" transform="translate(19.506 28.5469)" fill="#639B09"/>
<path d="M0.703617 -6.62457e-07C0.315 -6.62457e-07 9.61304e-07 0.319899 9.61304e-07 0.71456V0.748476C9.61304e-07 1.14314 0.315 1.46304 0.703617 1.46304C1.09223 1.46304 1.40723 1.14314 1.40723 0.748476V0.71456C1.40723 0.319899 1.09223 -6.62457e-07 0.703617 -6.62457e-07Z" transform="translate(37.0979 29.5961)" fill="#639B09"/>
</svg>
