<svg width="54" height="54" viewBox="0 0 54 54" fill="none" xmlns="http://www.w3.org/2000/svg">
<rect width="54" height="54" rx="10" fill="#77C000"/>
<path fill-rule="evenodd" clip-rule="evenodd" d="M10 5C4.47714 5 0 9.47716 0 15V10C0 4.47716 4.47714 0 10 0H44C49.5229 0 54 4.47716 54 10V15C54 9.47716 49.5229 5 44 5H10Z" transform="translate(54 54) rotate(180)" fill="#201D28" fill-opacity="0.23"/>
<path d="M3.61526 1.41067L2.3485 0.180203C2.10118 -0.0600673 1.70011 -0.0600673 1.45275 0.180203L0.18595 1.41067C-0.211361 1.79655 0.0699109 2.46096 0.633806 2.46096H3.16741C3.72919 2.46096 4.01405 1.79799 3.61526 1.41067Z" transform="translate(25.5995 27.5352)" fill="#639B09"/>
<path d="M3.16704 -2.45333e-07C1.42076 -2.45333e-07 4.63916e-08 1.37997 4.63916e-08 3.07622C4.63916e-08 4.77242 1.42072 6.15244 3.16704 6.15244C4.91337 6.15244 6.33408 4.77246 6.33408 3.07618C6.33408 1.37997 4.91332 -2.45333e-07 3.16704 -2.45333e-07ZM3.16704 4.93013C2.11927 4.93013 1.2584 4.09394 1.2584 3.07622C1.2584 2.0585 2.11927 1.22231 3.16704 1.22231C4.21481 1.22231 5.07569 2.0585 5.07569 3.07622C5.07569 4.09394 4.21481 4.93013 3.16704 4.93013Z" transform="translate(20.5325 21.3827)" fill="#639B09"/>
<path d="M3.16704 -2.45333e-07C1.42076 -2.45333e-07 0 1.37997 0 3.07622C0 4.77242 1.42072 6.15244 3.16704 6.15244C4.91333 6.15244 6.33408 4.77246 6.33408 3.07622C6.33408 1.37997 4.91333 -2.45333e-07 3.16704 -2.45333e-07ZM3.16704 4.93013C2.11927 4.93013 1.2584 4.09394 1.2584 3.07622C1.2584 2.0585 2.11927 1.22231 3.16704 1.22231C4.21481 1.22231 5.07573 2.0585 5.07573 3.07622C5.07573 4.09394 4.21481 4.93013 3.16704 4.93013Z" transform="translate(28.1335 21.3827)" fill="#639B09"/>
<path d="M18.7944 11.1148C19.4535 8.04958 18.498 4.91746 16.2183 2.70302V2.70298C14.4237 0.959932 12.0378 0 9.50002 0C6.96224 0 4.57631 0.959932 2.78167 2.70302C0.506965 4.91253 -0.457788 8.04252 0.205551 11.115C-0.0538477 11.8498 -0.0682892 12.6352 0.165393 13.3988C0.562493 14.6956 1.66697 15.6534 3.05627 15.9111C3.21652 15.9554 3.22594 15.9118 3.54019 15.962C3.62663 15.9758 3.70914 15.9875 3.79942 15.9933V18.3731C3.79942 19.1193 4.25146 19.7854 4.95103 20.0699C5.99398 20.4942 7.62963 20.9998 9.49909 21C9.49943 21 9.49972 21 9.50006 21C9.5004 21 9.50074 21 9.50103 21C11.3704 20.9998 13.0061 20.4941 14.0492 20.0699C14.7487 19.7853 15.2007 19.1193 15.2007 18.3732V15.9904C15.2884 15.9847 15.3702 15.9739 15.456 15.9611C15.7908 15.9113 15.8042 15.9574 15.9728 15.9022C17.3627 15.6312 18.4586 14.666 18.8444 13.366C19.0679 12.6131 19.0501 11.839 18.7944 11.1148ZM17.6272 13.0253C17.3689 13.8957 16.6198 14.539 15.6716 14.7054C15.154 14.7207 15.226 14.8214 14.6933 14.7163C14.3011 14.6389 13.9339 14.9306 13.9339 15.3192V18.3732C13.9339 18.622 13.7871 18.8425 13.5599 18.9349C13.3284 19.0291 13.0167 19.1344 12.6587 19.2469V17.9156C12.6587 17.5758 12.3836 17.3086 12.0337 17.3086C11.6839 17.3086 11.4003 17.584 11.4003 17.9238V19.5777C11.0039 19.6553 10.5698 19.708 10.1251 19.7389V17.9157C10.1251 17.5759 9.84995 17.3086 9.50014 17.3086C9.15034 17.3086 8.86675 17.5841 8.86675 17.9239V19.7471C8.42206 19.7162 7.98797 19.6471 7.5915 19.5696V17.9157C7.5915 17.5759 7.31635 17.3086 6.96655 17.3086C6.61674 17.3086 6.33315 17.5841 6.33315 17.9239V19.2551C5.97515 19.1426 5.67196 19.0292 5.44043 18.935C5.21317 18.8425 5.0579 18.6138 5.0579 18.365L5.05799 15.3114C5.05799 14.9233 4.69982 14.6391 4.30703 14.7166C3.74216 14.828 3.86639 14.718 3.30799 14.7049C2.37959 14.5376 1.64223 13.9049 1.37987 13.048C1.2089 12.4894 1.23381 11.9158 1.45195 11.3893C1.50026 11.2727 1.51065 11.1445 1.48172 11.0221C0.828985 8.25847 1.69919 5.495 3.67772 3.57312C5.2328 2.06243 7.3006 1.22227 9.50002 1.22227C11.6994 1.22227 13.7672 2.06239 15.3225 3.57304C17.3371 5.52994 18.1581 8.31458 17.5186 11.0219C17.4896 11.1445 17.5 11.2726 17.5483 11.3892C17.7635 11.9085 17.7907 12.4742 17.6272 13.0253Z" transform="translate(18 14)" fill="#639B09"/>
<circle cx="18.5" cy="18.5" r="17.8" transform="translate(9 6)" stroke="#639B09" stroke-width="1.4"/>
</svg>
