<svg width="54" height="54" viewBox="0 0 54 54" fill="none" xmlns="http://www.w3.org/2000/svg">
<rect width="54" height="54" rx="10" fill="#BC0924"/>
<path fill-rule="evenodd" clip-rule="evenodd" d="M10 5C4.47717 5 0 9.47714 0 15V10C0 4.47714 4.47717 0 10 0L44 0C49.5228 0 54 4.47714 54 10V15C54 9.47714 49.5228 5 44 5H10Z" transform="translate(54 54) rotate(180)" fill="#201D28" fill-opacity="0.23"/>
<path d="M6.422 20.282C6.24867 20.282 6.11 20.23 6.006 20.126C5.902 20.022 5.85 19.8833 5.85 19.71V18.462C5.85 17.7513 5.97133 17.11 6.214 16.538C6.45667 15.966 6.75133 15.472 7.098 15.056C7.44467 14.6227 7.904 14.1113 8.476 13.522C9.18667 12.7767 9.698 12.17 10.01 11.702C10.3393 11.2167 10.504 10.6707 10.504 10.064C10.504 9.14533 10.114 8.41733 9.334 7.88C8.554 7.32533 7.65267 7.048 6.63 7.048C5.538 7.048 4.628 7.334 3.9 7.906C3.172 8.478 2.704 9.39667 2.496 10.662C2.42667 11.0433 2.21867 11.234 1.872 11.234H1.456C1.3 11.234 1.17 11.1907 1.066 11.104C0.962 11 0.91 10.87 0.91 10.714C0.927333 9.76067 1.18733 8.894 1.69 8.114C2.19267 7.31667 2.86867 6.69267 3.718 6.242C4.58467 5.774 5.55533 5.54 6.63 5.54C7.79133 5.54 8.77933 5.748 9.594 6.164C10.426 6.58 11.0413 7.13467 11.44 7.828C11.856 8.52133 12.064 9.26667 12.064 10.064C12.064 10.9653 11.856 11.7453 11.44 12.404C11.024 13.0627 10.4087 13.8167 9.594 14.666C8.866 15.4287 8.32 16.0787 7.956 16.616C7.60933 17.1533 7.436 17.7687 7.436 18.462V19.71C7.436 19.8833 7.384 20.022 7.28 20.126C7.176 20.23 7.03733 20.282 6.864 20.282H6.422ZM6.11 24C5.93667 24 5.798 23.948 5.694 23.844C5.59 23.74 5.538 23.6013 5.538 23.428V22.44C5.538 22.2667 5.59 22.128 5.694 22.024C5.798 21.9027 5.93667 21.842 6.11 21.842H7.098C7.27133 21.842 7.41 21.9027 7.514 22.024C7.63533 22.128 7.696 22.2667 7.696 22.44V23.428C7.696 23.6013 7.63533 23.74 7.514 23.844C7.41 23.948 7.27133 24 7.098 24H6.11Z" transform="translate(21 9)" fill="#8B0A1F"/>
<circle cx="18.5" cy="18.5" r="17.8" transform="translate(9 6)" stroke="#8B0A1F" stroke-width="1.4"/>
</svg>
