<svg width="54" height="54" viewBox="0 0 54 54" fill="none" xmlns="http://www.w3.org/2000/svg">
<rect width="54" height="54" rx="10" fill="#BC0924"/>
<path fill-rule="evenodd" clip-rule="evenodd" d="M10 5C4.47717 5 0 9.47705 0 15V10C0 4.47705 4.47717 0 10 0H44C49.5228 0 54 4.47705 54 10V15C54 9.47705 49.5228 5 44 5H10Z" transform="translate(54 54) rotate(180)" fill="#201D28" fill-opacity="0.23"/>
<path d="M37.244 1.22108C37.08 1.24832 36.9046 1.26227 36.7241 1.26227C35.268 1.26227 34.7734 0.374988 34.7569 0.34582C34.6511 0.134297 34.4345 0.00382091 34.1983 3.57637e-05C33.9729 -0.00248767 33.7404 0.129251 33.6283 0.337582C33.6081 0.374914 33.1134 1.26227 31.6574 1.26227C30.2014 1.26227 29.7067 0.374988 29.6902 0.34582C29.5845 0.134297 29.3678 0.00382091 29.1316 3.57637e-05C28.8701 -0.00248767 28.6744 0.129251 28.5616 0.337582C28.5414 0.374914 28.0467 1.26227 26.5907 1.26227C25.1347 1.26227 24.64 0.374988 24.6235 0.34582C24.5178 0.134297 24.3011 0.00382091 24.065 3.57637e-05C23.8135 -0.00248767 23.6077 0.129251 23.4949 0.337582C23.4747 0.374914 22.98 1.26227 21.524 1.26227C20.068 1.26227 19.5733 0.374988 19.5568 0.34582C19.4517 0.134297 19.2345 0.00382091 18.9983 3.57637e-05C18.7576 -0.00248767 18.5403 0.129251 18.4283 0.337582C18.408 0.374914 17.9133 1.26227 16.4573 1.26227C15.0013 1.26227 14.5066 0.374988 14.4901 0.34582C14.3844 0.134297 14.1678 0.00382091 13.9316 3.57637e-05C13.7016 -0.00248767 13.4736 0.129251 13.3616 0.337582C13.3413 0.374914 12.8466 1.26227 11.3906 1.26227C9.93459 1.26227 9.43992 0.374988 9.42345 0.34582C9.31768 0.134297 9.10111 0.00382091 8.86488 3.57637e-05C8.64571 -0.00248767 8.40695 0.129251 8.29488 0.337582C8.27461 0.374914 7.77995 1.26227 6.32392 1.26227C4.8679 1.26227 4.37323 0.374988 4.35675 0.34582C4.25159 0.134297 4.03442 0.00382091 3.79818 3.57637e-05C3.54228 -0.00248767 3.34092 0.129251 3.22818 0.337582C3.20792 0.374914 2.71325 1.26227 1.25723 1.26227C1.07547 1.26227 0.91523 1.24899 0.739777 1.21923C0.39273 1.15844 0.0678005 1.39341 0.00894504 1.73794C-0.0493167 2.08246 0.183136 2.40991 0.528254 2.46818C0.77273 2.50937 1.00518 2.52896 1.25723 2.52896C2.50997 2.52896 3.31554 2.05463 3.79054 1.61949C4.26576 2.05456 5.07074 2.52889 6.32407 2.52889C7.57681 2.52889 8.38238 2.05456 8.85738 1.61941C9.33238 2.05448 10.1379 2.52889 11.3907 2.52889C12.6434 2.52889 13.449 2.05456 13.924 1.61941C14.399 2.05448 15.2046 2.52889 16.4573 2.52889C17.71 2.52889 18.5156 2.05456 18.9906 1.61941C19.4656 2.05448 20.2706 2.52889 21.5239 2.52889C22.7773 2.52889 23.5822 2.05456 24.0572 1.61941C24.5322 2.05448 25.3372 2.52889 26.5905 2.52889C27.8433 2.52889 28.6488 2.05456 29.1238 1.61941C29.5988 2.05448 30.4038 2.52889 31.6572 2.52889C32.9105 2.52889 33.7155 2.05456 34.1905 1.61941C34.6655 2.05448 35.4704 2.52889 36.7238 2.52889C36.9733 2.52889 37.2171 2.50929 37.4508 2.47129C37.7953 2.41362 38.0284 2.0881 37.9721 1.74299C37.916 1.3978 37.5962 1.16594 37.244 1.22108Z" transform="translate(8.00922 40.4711)" fill="#8B0A1F"/>
<path d="M7.50958 0.30717C7.32968 0.00821697 6.94151 -0.0899 6.64063 0.0905997L3.80013 1.79481L0.959632 0.0905261C0.659417 -0.0899736 0.270585 0.00821757 0.0906789 0.307096C-0.0898211 0.60731 0.00770234 0.996141 0.307249 1.17605L2.56951 2.53328L0.307249 3.89052C0.00770234 4.07035 -0.0898211 4.45926 0.0906789 4.75947C0.209132 4.95704 0.418726 5.06666 0.634109 5.06666C0.744917 5.06666 0.857062 5.03749 0.959632 4.97611L3.80013 3.27183L6.64063 4.97611C6.74261 5.03757 6.85535 5.06666 6.96615 5.06666C7.18146 5.06666 7.39113 4.95711 7.50958 4.75947C7.69008 4.45926 7.59256 4.07042 7.29301 3.89052L5.03075 2.53328L7.29301 1.17605C7.59256 0.996215 7.69008 0.60731 7.50958 0.30717Z" transform="translate(15.5999 16.4)" fill="#8B0A1F"/>
<path d="M5.25224 0.185751L3.34081 2.09718C2.63714 1.77922 1.75179 1.89515 1.19002 2.45691L0.556715 3.08963C0.197645 3.4487 1.13249e-07 3.92629 1.13249e-07 4.43358C1.13249e-07 4.94086 0.19757 5.41838 0.556715 5.77686C0.915192 6.13593 1.39271 6.33357 1.9 6.33357C2.40729 6.33357 2.88481 6.136 3.24329 5.77686L3.87659 5.14415C4.23507 4.78508 4.43331 4.30748 4.43331 3.8002C4.43331 3.51267 4.36362 3.23777 4.24264 2.98572L6.14769 1.08127C6.39528 0.833678 6.39528 0.433345 6.14769 0.185751C5.90017 -0.0619161 5.49983 -0.0619161 5.25224 0.185751ZM2.98107 4.24796L2.34776 4.88127C2.10774 5.12069 1.69226 5.12069 1.45224 4.88127C1.33193 4.76155 1.26669 4.60257 1.26669 4.43351C1.26669 4.26444 1.33193 4.10546 1.45224 3.98574L2.08555 3.35244C2.20526 3.23272 2.36424 3.16689 2.53331 3.16689C2.69036 3.16689 2.83538 3.22894 2.95198 3.33284C2.96021 3.34175 2.96274 3.35377 2.97098 3.3626C2.97981 3.37084 2.99191 3.37403 3.00074 3.3816C3.10457 3.49753 3.16669 3.64315 3.16669 3.80027C3.16669 3.96927 3.10145 4.12824 2.98107 4.24796Z" transform="translate(15.6 32.8664)" fill="#8B0A1F"/>
<path d="M1.24512 22.8H12.0118V23.4333C12.0118 23.7828 12.2949 24.0666 12.6451 24.0666C12.9954 24.0666 13.2784 23.7828 13.2784 23.4333V22.8H23.4117C23.648 22.8 23.8645 22.6682 23.9735 22.4592C24.083 22.2496 24.066 21.9969 23.9304 21.8037C19.6649 15.7098 19.6117 4.54544 19.6117 4.4333C19.6117 4.19959 19.4832 3.98487 19.2773 3.87473C19.0708 3.76452 18.8213 3.77721 18.6269 3.90642C18.461 4.01723 14.5451 6.6747 14.5451 10.7667C14.5451 11.1162 14.8282 11.4 15.1784 11.4C15.5287 11.4 15.8117 11.1162 15.8117 10.7667C15.8117 8.51139 17.3375 6.70825 18.3799 5.73992C18.5135 8.75965 19.1577 16.3077 22.2515 21.5333H1.76829C0.665024 15.5718 1.3845 10.8459 3.90898 7.48161C6.53031 3.98814 10.4462 2.92919 12.0144 2.63535C12.0638 10.4633 12.9099 16.1684 14.5965 20.0615C14.7358 20.3826 15.1082 20.5308 15.43 20.3908C15.7504 20.2521 15.898 19.8791 15.7593 19.558C14.0898 15.7061 13.2785 9.93008 13.2785 1.90007V0.633307C13.2785 0.283738 12.9954 0 12.6452 0C12.295 0 12.0119 0.283738 12.0119 0.633307V1.34581C10.4292 1.60104 5.95407 2.6574 2.9071 6.70632C0.0760981 10.4683 -0.69214 15.7116 0.623907 22.2907C0.683356 22.5872 0.943048 22.8 1.24512 22.8Z" transform="translate(12.4549 5)" fill="#8B0A1F"/>
<path d="M5.25224 0.185751L3.34081 2.09718C2.63714 1.77922 1.75179 1.89515 1.19002 2.45691L0.556714 3.08963C0.198238 3.4487 1.26839e-07 3.92629 1.26839e-07 4.43358C1.26839e-07 4.94086 0.198238 5.41838 0.556714 5.77686C0.915191 6.13593 1.39271 6.33357 1.9 6.33357C2.40728 6.33357 2.88481 6.136 3.24329 5.77686L3.87659 5.14415C4.23566 4.78508 4.43331 4.30748 4.43331 3.8002C4.43331 3.51267 4.36362 3.23777 4.24264 2.98572L6.14769 1.08127C6.39536 0.833678 6.39536 0.433345 6.14769 0.185751C5.90017 -0.0619161 5.49991 -0.0619161 5.25224 0.185751ZM2.98114 4.24796L2.34784 4.88127C2.10781 5.12069 1.69234 5.12069 1.45231 4.88127C1.332 4.76155 1.26677 4.60257 1.26677 4.43351C1.26677 4.26444 1.332 4.10546 1.45231 3.98574L2.08562 3.35244C2.20534 3.23272 2.36431 3.16689 2.53338 3.16689C2.69043 3.16689 2.83545 3.22894 2.95205 3.33284C2.96029 3.34175 2.96281 3.35377 2.97105 3.3626C2.97996 3.37084 2.99198 3.37403 3.00081 3.3816C3.10464 3.49753 3.16677 3.64315 3.16677 3.80027C3.16669 3.96927 3.10145 4.12824 2.98114 4.24796Z" transform="translate(21.9333 32.8664)" fill="#8B0A1F"/>
<path d="M37.3667 3.26156e-07H34.8334C33.1171 3.26156e-07 31.6667 1.45031 31.6667 3.16669V5.69999C31.6667 7.41629 30.2164 8.86668 28.5 8.86668H5.06669C4.84188 8.86668 4.63474 8.48668 4.36621 7.95022C4.02488 7.26815 3.55805 6.3333 2.53338 6.3333H0.633383C0.28307 6.3333 0 6.61703 0 6.9666V12.0333C0 15.0916 1.42945 16.281 3.4485 17.6268C3.73981 17.8213 4.13317 17.7414 4.32695 17.4514C4.52141 17.1601 4.44288 16.7667 4.1515 16.5729C2.3085 15.345 1.26669 14.528 1.26669 12.0333V7.59999H2.53338C2.7576 7.59999 2.96534 7.97998 3.23319 8.51644C3.57452 9.19851 4.04195 10.1334 5.06669 10.1334H28.5C30.9028 10.1334 32.9333 8.10289 32.9333 5.70006V3.16676C32.9333 2.15471 33.8213 1.26676 34.8333 1.26676H36.7333V2.44602C36.6643 2.49352 36.5389 2.55557 36.4502 2.60055C36.0823 2.78424 35.4667 3.09202 35.4667 3.80007V9.50006C35.4667 14.1753 33.281 15.2678 30.7502 16.5332C30.4373 16.6903 30.31 17.0703 30.4672 17.3832C30.578 17.6055 30.8016 17.734 31.034 17.7334C31.129 17.7334 31.2259 17.7119 31.3165 17.6669C33.8555 16.3971 36.7334 14.9582 36.7334 9.50013V3.88757C36.8024 3.84074 36.9278 3.77802 37.0165 3.73364C37.3844 3.54921 38 3.24135 38 2.5333V0.633307C38 0.283737 37.7169 3.26156e-07 37.3667 3.26156e-07Z" transform="translate(8 21.4666)" fill="#8B0A1F"/>
<path d="M6.14776 0.185696C5.90009 -0.0618975 5.49983 -0.0618975 5.25224 0.185696L3.34081 2.09712C2.63714 1.77917 1.75179 1.8951 1.19002 2.45686L0.556714 3.08957C0.197644 3.44864 -1.03283e-06 3.92624 -1.03283e-06 4.43352C-1.03283e-06 4.94081 0.19757 5.41833 0.556714 5.7768C0.915191 6.13587 1.39271 6.33352 1.9 6.33352C2.40728 6.33352 2.88481 6.13595 3.24328 5.7768L3.87659 5.14409C4.23507 4.78502 4.43331 4.30742 4.43331 3.80014C4.43331 3.51262 4.36362 3.23771 4.24271 2.98567L6.14776 1.08122C6.39535 0.833623 6.39535 0.433289 6.14776 0.185696ZM2.98107 4.2479L2.34776 4.88121C2.10774 5.12064 1.69226 5.12064 1.45224 4.88121C1.33193 4.7615 1.26669 4.60252 1.26669 4.43345C1.26669 4.26438 1.33193 4.1054 1.45224 3.98569L2.08555 3.35238C2.20526 3.23267 2.36424 3.16683 2.53331 3.16683C2.69036 3.16683 2.83538 3.22888 2.95198 3.33279C2.96022 3.34169 2.96274 3.35372 2.97098 3.36255C2.97981 3.37079 2.99191 3.37398 3.00074 3.38155C3.10457 3.49748 3.16669 3.64309 3.16669 3.80022C3.16662 3.96921 3.10079 4.12819 2.98107 4.2479Z" transform="translate(28.2667 32.8665)" fill="#8B0A1F"/>
</svg>
