<svg width="580" height="582" viewBox="0 0 580 582" fill="none" xmlns="http://www.w3.org/2000/svg">
<path d="M32.1894 1.30269e-05C14.4402 1.30269e-05 -6.54459e-07 14.6648 -6.54459e-07 32.69C-6.54459e-07 50.7152 14.4402 65.3799 32.1894 65.3799C49.9386 65.3799 64.3788 50.7152 64.3788 32.69C64.3788 14.6648 49.9386 1.30269e-05 32.1894 1.30269e-05ZM32.1894 43.587C26.2727 43.587 21.4593 38.6987 21.4593 32.69C21.4593 26.6812 26.2727 21.793 32.1894 21.793C38.1062 21.793 42.9196 26.6812 42.9196 32.69C42.9196 38.6987 38.1062 43.587 32.1894 43.587Z" transform="translate(314.889 495.165) rotate(-18.4349)" fill="#26222F"/>
<path d="M32.1894 1.30269e-05C14.4402 1.30269e-05 -3.79586e-06 14.6648 -3.79586e-06 32.69C-3.79586e-06 50.7152 14.4402 65.3799 32.1894 65.3799C49.9386 65.3799 64.3788 50.7152 64.3788 32.69C64.3788 14.6648 49.9386 1.30269e-05 32.1894 1.30269e-05ZM32.1894 43.587C26.2727 43.587 21.4593 38.6987 21.4593 32.69C21.4593 26.6812 26.2727 21.793 32.1894 21.793C38.1062 21.793 42.9196 26.6812 42.9196 32.69C42.9196 38.6987 38.1062 43.587 32.1894 43.587Z" transform="translate(386.143 471.413) rotate(-18.4349)" fill="#26222F"/>
<path d="M32.1894 1.30269e-05C14.4402 1.30269e-05 9.42421e-06 14.6648 9.42421e-06 32.69C9.42421e-06 50.7152 14.4402 65.3799 32.1894 65.3799C49.9386 65.3799 64.3788 50.7152 64.3788 32.69C64.3799 14.6648 49.9397 1.30269e-05 32.1894 1.30269e-05ZM32.1894 43.587C26.2727 43.587 21.4593 38.6987 21.4593 32.69C21.4593 26.6812 26.2727 21.793 32.1894 21.793C38.1062 21.793 42.9196 26.6812 42.9196 32.69C42.9196 38.6987 38.1062 43.587 32.1894 43.587Z" transform="translate(457.398 447.662) rotate(-18.4349)" fill="#26222F"/>
<path d="M548.366 269.431C546.365 263.767 540.221 260.823 534.642 262.855L382.772 318.1C378.506 319.652 375.661 323.757 375.661 328.358V354.683C375.661 357.792 373.074 360.418 370.013 360.418H308.675L308.529 191.237C318.763 199.893 331.912 205.112 346.241 205.112C366.186 205.112 383.838 195.003 394.525 179.574C405.214 195.002 422.865 205.112 442.809 205.112C471.684 205.112 495.765 183.936 500.827 156.077H507.187C513.113 156.077 517.917 151.198 517.917 145.18C517.917 139.161 513.113 134.283 507.187 134.283H349.435L357.709 107.699C359.354 102.416 358.371 96.7153 355.012 92.0612C351.019 86.5272 343.976 82.95 337.071 82.95H308.437L308.375 10.8785C308.375 10.8186 308.368 10.7609 308.366 10.701C308.363 10.4723 308.349 10.2437 308.331 10.0139C308.32 9.87342 308.309 9.73295 308.293 9.59356C308.269 9.39102 308.237 9.18956 308.201 8.98811C308.172 8.82041 308.142 8.65381 308.106 8.48829C308.069 8.32495 308.026 8.16269 307.982 7.99935C307.928 7.80008 307.871 7.60407 307.807 7.40915C307.763 7.27739 307.715 7.14671 307.665 7.01495C307.584 6.79934 307.498 6.58591 307.404 6.37683C307.38 6.32239 307.362 6.26685 307.337 6.21349C307.305 6.14489 307.266 6.08391 307.233 6.01748C307.134 5.81712 307.031 5.62111 306.921 5.42837C306.844 5.29443 306.765 5.16266 306.684 5.03308C306.584 4.8741 306.48 4.71947 306.373 4.56593C306.268 4.41565 306.16 4.26864 306.048 4.12599C305.952 4.00294 305.853 3.88425 305.752 3.76555C305.62 3.61092 305.486 3.45956 305.348 3.31364C305.25 3.21128 305.15 3.11219 305.048 3.01419C304.9 2.87153 304.751 2.73106 304.595 2.59712C304.484 2.5013 304.369 2.40874 304.253 2.31726C304.102 2.19748 303.951 2.07988 303.794 1.96989C303.658 1.87298 303.518 1.78259 303.377 1.69112C303.235 1.59965 303.091 1.50818 302.944 1.42433C302.78 1.3296 302.613 1.24139 302.443 1.15645C302.31 1.08894 302.177 1.02143 302.042 0.959356C301.859 0.875508 301.671 0.799282 301.483 0.726323C301.349 0.674054 301.216 0.622874 301.08 0.577138C300.894 0.512891 300.704 0.456266 300.513 0.401819C300.362 0.35935 300.211 0.31906 300.059 0.283124C299.886 0.242834 299.711 0.207988 299.535 0.176408C299.351 0.142651 299.165 0.114339 298.979 0.0903821C298.831 0.0718701 298.683 0.0566249 298.534 0.0446465C298.313 0.0261345 298.092 0.0152453 297.87 0.0108895C297.798 0.00980056 297.729 1.05926e-07 297.657 1.05926e-07C297.655 1.05926e-07 297.65 1.05926e-07 297.647 1.05926e-07C297.589 1.05926e-07 297.534 0.00762257 297.478 0.00871151C297.248 0.0119783 297.019 0.0261345 296.788 0.0446465C296.654 0.0555359 296.519 0.0664254 296.386 0.0827595C296.183 0.107805 295.981 0.140473 295.778 0.177497C295.617 0.206899 295.456 0.2363 295.299 0.272235C295.134 0.310348 294.969 0.356083 294.804 0.401819C294.613 0.455177 294.422 0.511802 294.235 0.576049C294.102 0.621785 293.971 0.671876 293.84 0.723056C293.629 0.804727 293.421 0.891842 293.216 0.98658C293.163 1.01163 293.108 1.02905 293.056 1.05518L217.999 37.2809C214.12 39.1528 211.714 43.195 211.883 47.5529C212.052 51.9119 214.765 55.7472 218.779 57.3022L284.965 82.9522H258.844C251.938 82.9522 244.896 86.5283 240.903 92.0634C237.545 96.7175 236.562 102.417 238.206 107.702L246.48 134.285H88.7236C82.7971 134.285 77.9934 139.163 77.9934 145.182C77.9934 151.2 82.7971 156.079 88.7236 156.079H95.0842C100.146 183.938 124.227 205.114 153.102 205.114C173.048 205.114 190.699 195.005 201.387 179.576C212.075 195.004 229.727 205.114 249.671 205.114C263.853 205.114 276.88 200.005 287.069 191.506L287.215 360.422H225.897C225.298 360.422 224.709 360.323 224.15 360.133V262.979C224.15 256.96 219.346 252.082 213.419 252.082H10.7302C4.80375 252.08 0 256.958 0 262.977C0 268.995 4.80375 273.874 10.7302 273.874H29.6685V305.586H10.7302C4.80375 305.586 0 310.464 0 316.482C0 322.5 4.80375 327.379 10.7302 327.379H29.6685V369.988C29.6685 376.007 34.4723 380.885 40.3987 380.885H108.922V395.585C108.876 396.123 108.868 396.668 108.901 397.214C108.908 397.324 108.916 397.434 108.925 397.556C109.197 421.728 115.209 443.819 126.605 463.253H119.651C113.725 463.253 108.921 468.131 108.921 474.15V538.103C108.921 544.122 113.725 549 119.651 549H182.624C188.55 549 193.354 544.122 193.354 538.103V522.136C224.678 537.358 262.449 545.585 302.248 545.585C349.954 545.585 394.577 533.747 427.898 512.252C466.557 487.314 486.991 451.725 486.991 409.333V303.339L541.891 283.368C547.469 281.335 550.368 275.095 548.366 269.431ZM478.795 156.077C474.166 171.812 459.79 183.319 442.81 183.319C425.831 183.319 411.454 171.812 406.825 156.077H478.795ZM153.103 183.319C136.124 183.319 121.747 171.812 117.118 156.077H189.087C184.459 171.812 170.083 183.319 153.103 183.319ZM382.225 156.077C377.596 171.812 363.22 183.319 346.241 183.319C329.262 183.319 314.886 171.813 310.256 156.077H382.225ZM249.858 46.0186L286.932 28.1251L286.96 60.3981L249.858 46.0186ZM249.673 183.319C232.693 183.319 218.317 171.812 213.688 156.077H285.656C281.028 171.813 266.652 183.319 249.673 183.319ZM269.27 134.283C268.975 133.772 268.538 132.856 268.062 131.328L259.789 104.744L336.123 104.743L327.848 131.328C327.373 132.855 326.936 133.771 326.641 134.283H269.27ZM51.1278 273.873H202.691V305.585H51.1278V273.873ZM171.894 527.206H130.381V485.047H142.656C150.856 494.093 160.496 502.347 171.552 509.71C171.664 509.785 171.781 509.857 171.894 509.932V527.206ZM465.532 409.331C465.531 452.99 438.809 479.393 416.392 493.854C386.467 513.158 345.931 523.79 302.248 523.79C219.994 523.79 131.125 484.097 130.381 396.951C130.381 396.899 130.38 396.846 130.379 396.792C130.381 396.706 130.382 396.621 130.382 396.535V380.885H139.74C145.666 380.885 150.47 376.007 150.47 369.988C150.47 363.969 145.666 359.091 139.74 359.091H51.1278V327.378H202.691V365.425C202.691 368.011 203.596 370.511 205.245 372.481C210.419 378.666 217.948 382.214 225.9 382.214H370.014C384.961 382.214 397.121 369.864 397.121 354.685V336.031L428.493 324.618V354.294C428.493 360.313 433.297 365.191 439.224 365.191C445.15 365.191 449.954 360.313 449.954 354.294V316.813L465.533 311.146V409.331H465.532Z" transform="translate(0 173.609) rotate(-18.4349)" fill="#26222F"/>
<path d="M11.2395 -2.65854e-06H10.7302C4.80375 -2.65854e-06 6.80637e-06 4.87844 6.80637e-06 10.897C6.80637e-06 16.9156 4.80375 21.7941 10.7302 21.7941H11.2395C17.1659 21.7941 21.9697 16.9156 21.9697 10.897C21.9697 4.87844 17.1648 -2.65854e-06 11.2395 -2.65854e-06Z" transform="translate(265.549 463.606) rotate(-18.4349)" fill="#26222F"/>
<path d="M10.7302 -1.01025e-05C4.80375 -1.01025e-05 1.46599e-05 4.87846 1.46599e-05 10.897V11.4143C1.46599e-05 17.4328 4.80375 22.3113 10.7302 22.3113C16.6566 22.3113 21.4603 17.4328 21.4603 11.4143V10.897C21.4603 4.87846 16.6566 -1.01025e-05 10.7302 -1.01025e-05Z" transform="translate(525.118 393.951) rotate(-18.4349)" fill="#26222F"/>
</svg>
