<svg width="570" height="549" viewBox="0 0 570 549" fill="none" xmlns="http://www.w3.org/2000/svg">
<path d="M522.397 17.1273C520.096 17.5093 517.635 17.7051 515.103 17.7051C494.681 17.7051 487.742 5.25971 487.511 4.85059C486.028 1.8837 482.989 0.0535935 479.677 0.000501635C476.514 -0.0348929 473.254 1.81292 471.682 4.73505C471.397 5.25868 464.459 17.7051 444.036 17.7051C423.614 17.7051 416.675 5.25971 416.444 4.85059C414.961 1.8837 411.922 0.0535935 408.61 0.000501635C404.941 -0.0348929 402.196 1.81292 400.615 4.73505C400.33 5.25868 393.392 17.7051 372.969 17.7051C352.547 17.7051 345.608 5.25971 345.377 4.85059C343.894 1.8837 340.855 0.0535935 337.543 0.000501635C334.016 -0.0348929 331.129 1.81292 329.548 4.73505C329.263 5.25868 322.325 17.7051 301.902 17.7051C281.48 17.7051 274.541 5.25971 274.31 4.85059C272.835 1.8837 269.789 0.0535935 266.476 0.000501635C263.1 -0.0348929 260.053 1.81292 258.481 4.73505C258.196 5.25868 251.258 17.7051 230.835 17.7051C210.413 17.7051 203.474 5.25971 203.243 4.85059C201.76 1.8837 198.722 0.0535935 195.409 0.000501635C192.183 -0.0348929 188.985 1.81292 187.414 4.73505C187.129 5.25868 180.191 17.7051 159.768 17.7051C139.346 17.7051 132.407 5.25971 132.176 4.85059C130.693 1.8837 127.655 0.0535935 124.342 0.000501635C121.267 -0.0348929 117.918 1.81292 116.347 4.73505C116.062 5.25868 109.124 17.7051 88.7013 17.7051C68.2787 17.7051 61.3403 5.25971 61.1092 4.85059C59.6341 1.8837 56.5881 0.0535935 53.2745 0.000501635C49.6851 -0.0348929 46.8608 1.81292 45.2795 4.73505C44.9953 5.25868 38.057 17.7051 17.6343 17.7051C15.0849 17.7051 12.8373 17.5187 10.3763 17.1013C5.50856 16.2487 0.950991 19.5445 0.125466 24.3769C-0.691731 29.2093 2.56873 33.8023 7.40945 34.6195C10.8386 35.1973 14.099 35.4721 17.6343 35.4721C35.2056 35.4721 46.5048 28.819 53.1673 22.7155C59.8329 28.8179 71.1238 35.471 88.7034 35.471C106.275 35.471 117.574 28.8179 124.236 22.7144C130.899 28.8169 142.198 35.471 159.769 35.471C177.341 35.471 188.64 28.8179 195.302 22.7144C201.965 28.8169 213.264 35.471 230.835 35.471C248.407 35.471 259.706 28.8179 266.368 22.7144C273.031 28.8169 284.322 35.471 301.901 35.471C319.481 35.471 330.772 28.8179 337.434 22.7144C344.097 28.8169 355.388 35.471 372.967 35.471C390.539 35.471 401.838 28.8179 408.5 22.7144C415.163 28.8169 426.454 35.471 444.033 35.471C461.613 35.471 472.904 28.8179 479.566 22.7144C486.229 28.8169 497.52 35.471 515.099 35.471C518.599 35.471 522.019 35.1962 525.297 34.6632C530.129 33.8543 533.398 29.2885 532.608 24.4477C531.822 19.606 527.336 16.3538 522.397 17.1273Z" transform="translate(-105.092 465.423) rotate(20.7769)" fill="#26222F"/>
<path d="M73.6696 2.60541L46.8592 29.4157C36.9894 24.956 24.5711 26.5821 16.6916 34.4615L7.80866 43.3362C2.77223 48.3726 1.58846e-06 55.0716 1.58846e-06 62.1869C1.58846e-06 69.3023 2.77118 76.0002 7.80866 81.0283C12.8368 86.0647 19.5347 88.8369 26.65 88.8369C33.7653 88.8369 40.4632 86.0657 45.4913 81.0283L54.3743 72.1536C59.4024 67.1172 62.183 60.4182 62.183 53.3029C62.183 49.27 61.2055 45.4141 59.5086 41.8788L86.2294 15.1663C89.7022 11.6935 89.7022 6.07824 86.2294 2.60541C82.7576 -0.868457 77.1424 -0.868457 73.6696 2.60541ZM41.8134 59.5834L32.9305 68.4663C29.5638 71.8247 23.7362 71.8247 20.3696 68.4663C18.6821 66.7872 17.767 64.5573 17.767 62.1859C17.767 59.8145 18.6821 57.5846 20.3696 55.9054L29.2525 47.0224C30.9317 45.3433 33.1616 44.4199 35.533 44.4199C37.7358 44.4199 39.7699 45.2902 41.4053 46.7476C41.5209 46.8725 41.5563 47.0412 41.6718 47.1651C41.7957 47.2806 41.9654 47.3254 42.0893 47.4316C43.5457 49.0576 44.417 51.1001 44.417 53.3039C44.417 55.6743 43.502 57.9042 41.8134 59.5834Z" transform="translate(32.2919 403.465) rotate(20.7769)" fill="#26222F"/>
<path d="M17.4644 319.8H168.481V328.683C168.481 333.586 172.452 337.566 177.364 337.566C182.277 337.566 186.247 333.586 186.247 328.683V319.8H328.38C331.694 319.8 334.732 317.952 336.26 315.021C337.796 312.08 337.557 308.536 335.656 305.827C275.827 220.351 275.08 63.756 275.08 62.183C275.08 58.9049 273.277 55.8932 270.39 54.3483C267.493 52.8024 263.994 52.9804 261.266 54.7928C258.94 56.3471 204.014 93.6217 204.014 151.017C204.014 155.92 207.985 159.9 212.897 159.9C217.81 159.9 221.78 155.92 221.78 151.017C221.78 119.384 243.181 94.0922 257.803 80.5101C259.676 122.866 268.711 228.737 312.106 302.034H24.8025C9.32784 218.416 19.4194 152.128 54.8285 104.94C91.5962 55.939 146.522 41.0858 168.518 36.9644C169.211 146.762 181.079 226.783 204.735 281.39C206.689 285.893 211.913 287.972 216.425 286.009C220.921 284.063 222.99 278.831 221.044 274.328C197.628 220.299 186.248 139.283 186.248 26.6511V8.88299C186.248 3.9798 182.278 0 177.365 0C172.453 0 168.482 3.9798 168.482 8.88299V18.8767C146.283 22.4568 83.5137 37.2736 40.7759 94.0652C1.06738 146.832 -9.70818 220.377 8.75111 312.658C9.58497 316.816 13.2275 319.8 17.4644 319.8Z" transform="translate(129.698 22.3699) rotate(20.7769)" fill="#26222F"/>
<path d="M73.6696 2.60541L46.8592 29.4157C36.9894 24.956 24.5711 26.5821 16.6916 34.4615L7.80865 43.3362C2.78055 48.3726 1.77908e-06 55.0716 1.77908e-06 62.1869C1.77908e-06 69.3023 2.78055 76.0002 7.80865 81.0283C12.8368 86.0647 19.5347 88.8369 26.65 88.8369C33.7653 88.8369 40.4632 86.0657 45.4913 81.0283L54.3743 72.1536C59.4108 67.1172 62.183 60.4182 62.183 53.3029C62.183 49.27 61.2055 45.4141 59.5086 41.8788L86.2294 15.1663C89.7033 11.6935 89.7033 6.07824 86.2294 2.60541C82.7576 -0.868457 77.1434 -0.868457 73.6696 2.60541ZM41.8145 59.5834L32.9315 68.4663C29.5648 71.8247 23.7372 71.8247 20.3706 68.4663C18.6831 66.7872 17.768 64.5573 17.768 62.1859C17.768 59.8145 18.6831 57.5846 20.3706 55.9054L29.2536 47.0224C30.9327 45.3433 33.1626 44.4199 35.534 44.4199C37.7368 44.4199 39.771 45.2902 41.4064 46.7476C41.5219 46.8725 41.5574 47.0412 41.6729 47.1651C41.7978 47.2806 41.9665 47.3254 42.0903 47.4316C43.5467 49.0576 44.4181 51.1001 44.4181 53.3039C44.417 55.6743 43.502 57.9042 41.8145 59.5834Z" transform="translate(115.348 434.976) rotate(20.7769)" fill="#26222F"/>
<path d="M524.117 4.57478e-06H488.584C464.511 4.57478e-06 444.167 20.3425 444.167 44.417V79.95C444.167 104.024 423.825 124.367 399.75 124.367H71.067C67.9138 124.367 65.0083 119.037 61.2419 111.513C56.4543 101.946 49.9063 88.833 35.534 88.833H8.88403C3.97043 88.833 0 92.8128 0 97.716V168.783C0 211.68 20.05 228.364 48.3698 247.24C52.4557 249.968 57.9731 248.848 60.6912 244.779C63.4187 240.693 62.3173 235.176 58.2303 232.458C32.3797 215.234 17.767 203.775 17.767 168.783V106.6H35.534C38.6789 106.6 41.5927 111.93 45.3498 119.455C50.1374 129.021 56.6937 142.134 71.067 142.134H399.75C433.453 142.134 461.933 113.654 461.933 79.9511V44.4181C461.933 30.2228 474.388 17.7681 488.583 17.7681H515.233V34.3088C514.265 34.975 512.505 35.8453 511.263 36.4762C506.101 39.0527 497.467 43.3698 497.467 53.3011V133.251C497.467 198.828 466.81 214.152 431.313 231.901C426.924 234.104 425.138 239.434 427.342 243.823C428.896 246.94 432.033 248.744 435.292 248.735C436.625 248.735 437.984 248.433 439.254 247.802C474.868 229.992 515.234 209.808 515.234 133.252V54.5284C516.202 53.8716 517.961 52.9919 519.204 52.3694C524.366 49.7824 533 45.4643 533 35.533V8.88298C533 3.9798 529.03 4.57478e-06 524.117 4.57478e-06Z" transform="translate(-10.6548 216.15) rotate(20.7769)" fill="#26222F"/>
<path d="M86.2304 2.60463C82.7566 -0.868196 77.1424 -0.868196 73.6696 2.60463L46.8592 29.415C36.9894 24.9552 24.5711 26.5813 16.6917 34.4608L7.80865 43.3354C2.77222 48.3718 -1.44868e-05 55.0708 -1.44868e-05 62.1861C-1.44868e-05 69.3015 2.77118 75.9994 7.80865 81.0275C12.8368 86.0639 19.5347 88.8362 26.65 88.8362C33.7653 88.8362 40.4632 86.065 45.4913 81.0275L54.3743 72.1528C59.4024 67.1164 62.183 60.4174 62.183 53.3021C62.183 49.2692 61.2055 45.4133 59.5097 41.878L86.2304 15.1655C89.7033 11.6927 89.7033 6.07746 86.2304 2.60463ZM41.8134 59.5826L32.9305 68.4656C29.5638 71.8239 23.7362 71.8239 20.3696 68.4656C18.6821 66.7864 17.767 64.5565 17.767 62.1851C17.767 59.8137 18.6821 57.5838 20.3696 55.9046L29.2525 47.0217C30.9317 45.3425 33.1616 44.4191 35.533 44.4191C37.7358 44.4191 39.7699 45.2894 41.4054 46.7468C41.5209 46.8717 41.5563 47.0404 41.6718 47.1643C41.7957 47.2798 41.9654 47.3246 42.0893 47.4308C43.5457 49.0569 44.417 51.0993 44.417 53.3031C44.416 55.6735 43.4926 57.9034 41.8134 59.5826Z" transform="translate(198.405 466.489) rotate(20.7769)" fill="#26222F"/>
</svg>
