<svg width="54" height="54" viewBox="0 0 54 54" fill="none" xmlns="http://www.w3.org/2000/svg">
<rect width="54" height="54" fill="black" fill-opacity="0"/>
<rect width="54" height="54" fill="black" fill-opacity="0"/>
<rect width="54" height="54" rx="10" fill="#77C000"/>
<path fill-rule="evenodd" clip-rule="evenodd" d="M44 49C49.5229 49 54 44.5228 54 39V44C54 49.5228 49.5229 54 44 54L10 54C4.47705 54 0 49.5228 0 44V39C0 44.5228 4.47705 49 10 49L44 49Z" fill="#201D28" fill-opacity="0.23"/>
<rect width="12" height="12" fill="black" fill-opacity="0" transform="translate(21 19)"/>
<circle cx="27" cy="25" r="6" fill="#446D00"/>
<path fill-rule="evenodd" clip-rule="evenodd" d="M27 19C23.6865 19 21 21.6863 21 25C21 25.3407 21.0283 25.6748 21.083 26C21.5591 23.1623 24.0273 21 27 21C29.9727 21 32.4409 23.1623 32.917 26C32.9717 25.6748 33 25.3407 33 25C33 21.6863 30.3135 19 27 19Z" fill="#639B09"/>
</svg>
